<svg xmlns="http://www.w3.org/2000/svg" viewBox="0 0 760 760" fill="none">
  <!-- Background circle -->
  <circle cx="380" cy="380" r="380" fill="#f8fafc"/>
  
  <!-- Main logo -->
  <g transform="translate(200, 200)">
    <!-- Signal waves -->
    <path d="M180 120c66.27 0 120 53.73 120 120s-53.73 120-120 120" stroke="url(#gradient1)" stroke-width="24" fill="none" stroke-linecap="round"/>
    <path d="M180 160c44.18 0 80 35.82 80 80s-35.82 80-80 80" stroke="url(#gradient1)" stroke-width="20" fill="none" stroke-linecap="round"/>
    <path d="M180 200c22.09 0 40 17.91 40 40s-17.91 40-40 40" stroke="url(#gradient1)" stroke-width="16" fill="none" stroke-linecap="round"/>
    
    <!-- P symbol -->
    <path d="M140 320V140h40c33.14 0 60 26.86 60 60s-26.86 60-60 60h-40v60z" fill="url(#gradient2)"/>
    <circle cx="180" cy="280" r="20" fill="white"/>
  </g>
  
  <!-- Text -->
  <g transform="translate(120, 440)">
    <text x="0" y="0" font-family="Arial, sans-serif" font-size="72" font-weight="bold" fill="url(#gradient3)">PingDesk</text>
  </g>
  
  <!-- Gradients -->
  <defs>
    <linearGradient id="gradient1" x1="0%" y1="0%" x2="100%" y2="100%">
      <stop offset="0%" style="stop-color:#3b82f6;stop-opacity:1" />
      <stop offset="100%" style="stop-color:#1d4ed8;stop-opacity:1" />
    </linearGradient>
    <linearGradient id="gradient2" x1="0%" y1="0%" x2="100%" y2="100%">
      <stop offset="0%" style="stop-color:#3b82f6;stop-opacity:1" />
      <stop offset="50%" style="stop-color:#6366f1;stop-opacity:1" />
      <stop offset="100%" style="stop-color:#8b5cf6;stop-opacity:1" />
    </linearGradient>
    <linearGradient id="gradient3" x1="0%" y1="0%" x2="100%" y2="0%">
      <stop offset="0%" style="stop-color:#3b82f6;stop-opacity:1" />
      <stop offset="50%" style="stop-color:#6366f1;stop-opacity:1" />
      <stop offset="100%" style="stop-color:#8b5cf6;stop-opacity:1" />
    </linearGradient>
  </defs>
</svg>
